<svg xmlns="http://www.w3.org/2000/svg" version="1.1" xmlns:xlink="http://www.w3.org/1999/xlink" xmlns:svgjs="http://svgjs.com/svgjs" width="1440" height="560" preserveAspectRatio="none" viewBox="0 0 1440 560"><g mask="url(&quot;#SvgjsMask1400&quot;)" fill="none"><rect width="1440" height="560" x="0" y="0" fill="url(#SvgjsLinearGradient1401)"></rect><path d="M288 379L-129 -38" stroke-width="6" stroke="url(#SvgjsLinearGradient1402)" stroke-linecap="round" class="BottomRight"></path><path d="M157 92L-198 -263" stroke-width="10" stroke="url(#SvgjsLinearGradient1403)" stroke-linecap="round" class="TopLeft"></path><path d="M445 77L630 262" stroke-width="10" stroke="url(#SvgjsLinearGradient1403)" stroke-linecap="round" class="TopLeft"></path><path d="M49 506L-195 262" stroke-width="6" stroke="url(#SvgjsLinearGradient1402)" stroke-linecap="round" class="BottomRight"></path><path d="M1013 194L820 1" stroke-width="10" stroke="url(#SvgjsLinearGradient1402)" stroke-linecap="round" class="BottomRight"></path><path d="M1166 113L1499 446" stroke-width="6" stroke="url(#SvgjsLinearGradient1403)" stroke-linecap="round" class="TopLeft"></path><path d="M734 374L451 91" stroke-width="10" stroke="url(#SvgjsLinearGradient1402)" stroke-linecap="round" class="BottomRight"></path><path d="M177 18L590 431" stroke-width="10" stroke="url(#SvgjsLinearGradient1403)" stroke-linecap="round" class="TopLeft"></path><path d="M621 212L993 584" stroke-width="10" stroke="url(#SvgjsLinearGradient1402)" stroke-linecap="round" class="BottomRight"></path><path d="M329 550L78 299" stroke-width="8" stroke="url(#SvgjsLinearGradient1403)" stroke-linecap="round" class="TopLeft"></path><path d="M1343 288L1574 519" stroke-width="6" stroke="url(#SvgjsLinearGradient1403)" stroke-linecap="round" class="TopLeft"></path><path d="M238 103L94 -41" stroke-width="6" stroke="url(#SvgjsLinearGradient1402)" stroke-linecap="round" class="BottomRight"></path><path d="M1252 20L913 -319" stroke-width="6" stroke="url(#SvgjsLinearGradient1402)" stroke-linecap="round" class="BottomRight"></path><path d="M528 364L803 639" stroke-width="10" stroke="url(#SvgjsLinearGradient1403)" stroke-linecap="round" class="TopLeft"></path><path d="M593 494L431 332" stroke-width="10" stroke="url(#SvgjsLinearGradient1402)" stroke-linecap="round" class="BottomRight"></path><path d="M31 272L-138 103" stroke-width="8" stroke="url(#SvgjsLinearGradient1403)" stroke-linecap="round" class="TopLeft"></path><path d="M1094 430L1488 824" stroke-width="8" stroke="url(#SvgjsLinearGradient1403)" stroke-linecap="round" class="TopLeft"></path><path d="M734 292L384 -58" stroke-width="8" stroke="url(#SvgjsLinearGradient1403)" stroke-linecap="round" class="TopLeft"></path><path d="M286 194L632 540" stroke-width="10" stroke="url(#SvgjsLinearGradient1403)" stroke-linecap="round" class="TopLeft"></path><path d="M1302 143L1643 484" stroke-width="10" stroke="url(#SvgjsLinearGradient1402)" stroke-linecap="round" class="BottomRight"></path><path d="M979 26L795 -158" stroke-width="8" stroke="url(#SvgjsLinearGradient1402)" stroke-linecap="round" class="BottomRight"></path><path d="M1038 370L645 -23" stroke-width="10" stroke="url(#SvgjsLinearGradient1402)" stroke-linecap="round" class="BottomRight"></path><path d="M751 456L1119 824" stroke-width="8" stroke="url(#SvgjsLinearGradient1403)" stroke-linecap="round" class="TopLeft"></path><path d="M406 434L206 234" stroke-width="6" stroke="url(#SvgjsLinearGradient1403)" stroke-linecap="round" class="TopLeft"></path><path d="M1345 407L1751 813" stroke-width="8" stroke="url(#SvgjsLinearGradient1402)" stroke-linecap="round" class="BottomRight"></path><path d="M243 242L-79 -80" stroke-width="8" stroke="url(#SvgjsLinearGradient1402)" stroke-linecap="round" class="BottomRight"></path><path d="M667 494L950 777" stroke-width="10" stroke="url(#SvgjsLinearGradient1402)" stroke-linecap="round" class="BottomRight"></path><path d="M725 29L384 -312" stroke-width="10" stroke="url(#SvgjsLinearGradient1403)" stroke-linecap="round" class="TopLeft"></path><path d="M221 89L-38 -170" stroke-width="10" stroke="url(#SvgjsLinearGradient1403)" stroke-linecap="round" class="TopLeft"></path><path d="M663 73L830 240" stroke-width="6" stroke="url(#SvgjsLinearGradient1403)" stroke-linecap="round" class="TopLeft"></path><path d="M1056 377L1394 715" stroke-width="6" stroke="url(#SvgjsLinearGradient1402)" stroke-linecap="round" class="BottomRight"></path><path d="M1133 335L1305 507" stroke-width="10" stroke="url(#SvgjsLinearGradient1403)" stroke-linecap="round" class="TopLeft"></path><path d="M1126 400L751 25" stroke-width="6" stroke="url(#SvgjsLinearGradient1403)" stroke-linecap="round" class="TopLeft"></path><path d="M225 35L-45 -235" stroke-width="6" stroke="url(#SvgjsLinearGradient1402)" stroke-linecap="round" class="BottomRight"></path><path d="M722 546L437 261" stroke-width="6" stroke="url(#SvgjsLinearGradient1402)" stroke-linecap="round" class="BottomRight"></path><path d="M630 345L1046 761" stroke-width="8" stroke="url(#SvgjsLinearGradient1402)" stroke-linecap="round" class="BottomRight"></path><path d="M1138 68L1428 358" stroke-width="10" stroke="url(#SvgjsLinearGradient1403)" stroke-linecap="round" class="TopLeft"></path><path d="M1417 312L1677 572" stroke-width="6" stroke="url(#SvgjsLinearGradient1403)" stroke-linecap="round" class="TopLeft"></path><path d="M1326 370L1487 531" stroke-width="8" stroke="url(#SvgjsLinearGradient1403)" stroke-linecap="round" class="TopLeft"></path></g><defs><mask id="SvgjsMask1400"><rect width="1440" height="560" fill="#ffffff"></rect></mask><linearGradient x1="15.28%" y1="-39.29%" x2="84.72%" y2="139.29%" gradientUnits="userSpaceOnUse" id="SvgjsLinearGradient1401"><stop stop-color="rgba(12, 1, 43, 1)" offset="0.01"></stop><stop stop-color="rgba(10, 52, 105, 1)" offset="0.99"></stop></linearGradient><linearGradient x1="0%" y1="0%" x2="100%" y2="100%" id="SvgjsLinearGradient1402"><stop stop-color="rgba(28, 83, 142, 0)" offset="0"></stop><stop stop-color="#1c538e" offset="1"></stop></linearGradient><linearGradient x1="100%" y1="100%" x2="0%" y2="0%" id="SvgjsLinearGradient1403"><stop stop-color="rgba(28, 83, 142, 0)" offset="0"></stop><stop stop-color="#1c538e" offset="1"></stop></linearGradient></defs></svg>